<svg version="1.2" xmlns="http://www.w3.org/2000/svg" viewBox="0 0 6500 1290" width="6500" height="1290">
	<style>
		.s0 { fill: #000000 } 
	</style>
	<path class="s0" d="m1062.58 940.41c-100.62 60.38-203.31 65.61-307.09 13.17-42.33-21.39-74.1-55.25-92.89-100.05-4.66-11.09-3.88-17.35 8.09-23.18 19.8-9.64 38.54-21.5 57.77-32.34 3.05-1.72 5.82-4.46 10.15-3.47 6.46 4.96 3.99 13.22 6.58 19.77 9.31 23.61 24.73 41.9 46.67 54.24 42.01 23.65 86.71 32.99 135.2 27.86 40.24-4.26 74.69-19.43 104.36-46 31.38-28.09 35.18-68.33 9.42-101.85-20.94-27.24-49.64-42.24-82.95-49.39-35.73-7.66-72.07-11-108.13-16.37-48.51-7.22-93.49-23.37-131.82-54.96-41.04-33.81-65.74-77.09-67.03-130.5-1.27-52.64 21.55-96.79 60.71-130.66 63.56-54.99 138.77-73.09 221.61-64.74 45.37 4.57 86.94 19.01 125.34 43.05 35.4 22.16 60.75 53.12 78.4 90.78 4.45 9.5 3.24 15.6-6.59 20.81-22.58 11.99-44.71 24.81-66.69 37.11-2.2-2.05-3.81-2.81-4.05-3.87-10.71-48.54-46.1-72.92-89.16-87.42-58.97-19.86-117.2-15.97-172.78 13.24-16.03 8.43-30.35 19.5-40.89 34.62-20.03 28.75-18.92 62.68 2.87 90.24 22.42 28.37 52.6 43 87.56 48.97 42.59 7.27 85.48 13.15 127.76 21.93 58.75 12.2 109.47 38.7 143.88 90.26 56.14 84.11 26.73 178.59-46.44 232.28-2.9 2.13-6.02 3.96-9.86 6.47z"/>
	<path class="s0" d="m1632.31 609.07c54.16 123.2 107.91 245.47 161.31 366.97-4.93 5.04-9.22 4.03-13.12 4.06-22.54 0.16-45.08-0.24-67.61 0.34-10.49 0.28-16.46-3.54-20.59-13.33-14.38-34.02-29.8-67.61-44.09-101.68-4.42-10.52-9.94-15.06-22.06-14.99-91.95 0.55-183.91 0.48-275.86 0.09-10.32-0.04-15.39 3.84-19.37 12.78-15.37 34.57-31.63 68.75-46.85 103.38-4.23 9.63-9.84 13.93-20.4 13.69-23.43-0.52-46.87-0.3-70.31-0.28-10.62 0.01-13.51-3.1-8.5-13.89 99.1-213.29 197.88-426.72 296.76-640.11 3.72-8.05 7.75-15.96 15.4-24.7 44.96 102.25 89.92 204.49 135.29 307.67zm-178.57-12.14c-24.48 53.49-48.97 106.98-74.3 162.31 74.63 0 147.1 0 222.32 0-36.74-82.04-72.54-161.99-109.63-244.82-13.63 29.3-25.58 54.98-38.39 82.51z"/>
	<path class="s0" d="m503.81 312.37c3.42-6.34 8.7-5.94 13.54-5.98 19.82-0.16 39.65 0.13 59.47-0.19 10.13-0.17 14.59 3.61 14.57 14.27-0.27 121.65 1.66 243.34-1.04 364.94-1.62 73.43-20.49 143.41-65.68 203.8-90.71 121.21-276.34 134.96-382.12 7.32-12.68-15.29-23.64-31.74-32.54-49.6-3.64-7.31-2.54-11.26 4.94-14.84 17.86-8.55 35.4-17.79 53.09-26.71 16.73-8.43 16.77-8.41 25.74 7.66 20.06 35.93 47.7 64.09 87.71 75.89 73.13 21.55 150.02-3.21 189.34-80.14 19.62-38.36 29.33-79.63 29.82-122.34 1.19-104.94 0.8-209.9 1.24-314.86 0.08-19.35 1.05-38.7 1.92-59.22z"/>
	<path class="s0" d="m4136.99 783.72c18.22 2.75 21.94 12.35 20.68 27.05-5 58.04-50.64 104.94-107.82 109.88-64.61 5.57-114.62-30.7-129.65-94.02-14.27-60.09 13.07-116.27 68.17-140.09 56.4-24.38 122.01-5.16 152.96 44.8 5.47 8.83 5.47 8.83 2.89 28.88-19.09 4.76-27.07-11.06-37.76-21.06-39.1-36.56-83.81-39.62-122.63-7.91-35.59 29.07-40.08 91.89-9.18 128.38 28.62 33.79 84.88 37.7 120.17 7.48 13.14-11.25 25.45-24.08 22.81-45.23-22.23-6.74-43.7 0.2-64.9-1.02-13.07-0.75-26.75-1.59-26.98-18.26-0.24-16.45 14.14-14.83 25.17-15.41 27.82-1.47 55.65-2.53 86.07-3.47z"/>
	<path class="s0" d="m6345.14 589.39c-58.72 33.92-105.48 32.71-148.42-2.4-39.2-32.04-54.95-90.01-37.58-140.78 16.59-48.45 53.56-73.13 101.97-78.32 46.31-4.96 84.83 13.49 112.05 52.28 6.37 9.07 12.93 18.87 9.68 32.9-19.28 7.06-26.43-10.14-36.47-19.68-39.24-37.32-86.62-42.6-126.01-13.27-31.2 23.23-40.75 63.91-24.97 106.41 12.89 34.72 47.7 57.55 81.89 53.73 41.72-4.67 68.45-27.66 75.08-65.95-19.86-6.89-40.47-2.23-60.63-2.94-13.7-0.49-29.92 0.7-30.6-17.58-0.68-18.35 16.43-15.17 27.87-15.67 24.74-1.08 49.57-0.08 74.29-1.31 24.23-1.2 30.89 10.97 28.35 32.5-3.86 32.57-20.08 57.97-46.5 80.08z"/>
	<path class="s0" d="m3678.76 400.29c33.21 45.87 65.03 90 98.36 136.22 10.37-13.2 6.53-25.78 6.8-37.06 0.79-32.99 0.12-66.01 0.68-99 0.22-12.41-4.71-30.21 16.89-28.95 19.45 1.14 16.52 17.74 16.69 30.8 0.39 28.87 0.43 57.75 0.45 86.63 0.03 30.94 0.23 61.88-0.39 92.81-0.21 10.36 5.8 24.61-10.1 28.66-13.99 3.57-23.14-5.79-30.76-16.22q-38.33-52.44-76.6-104.94c-10.75-14.75-21.39-29.57-38-42.92 0 41.7 0.76 83.43-0.42 125.11-0.4 14.36 8.9 37.92-17.77 37.93-27.87 0-19.72-24.23-19.85-39.96-0.49-55.67 0.3-111.36 0.97-167.04 0.14-11.68-5.04-26.82 11-31.87 14.1-4.45 22.51 6.84 30.68 16.25 3.37 3.89 6.65 7.87 11.37 13.55z"/>
	<path class="s0" d="m2115.77 910.81c-49.4-40.27-46.68-73.12 8.38-118.48-5.77-25.63-33.53-46.17-19.94-77.16 5.55-12.65 12.87-23.06 25.59-29.7 34.08-17.79 75.93-12.06 96.36 13.77 23.28 29.43 15.47 53.18-37.75 110.24 11.88 13.1 23.97 26.44 36.37 40.12 14.57-9.52 11.57-25.05 17.78-36.17 4.9-8.79 11.73-15.16 22.39-11.9 9.92 3.04 9.61 12.17 9.48 20.58-0.01 1.02 0.02 2.12-0.3 3.07-5.59 16.35-14.23 32.36-16.03 49.11-1.79 16.79 27.66 18.5 24.92 38.86-7.53 9.64-18.51 9-25.14 3.58-21.6-17.65-40.63-8.94-62.18 0.27-25.85 11.06-52.57 7.01-79.93-6.19zm17.96-85.6c-20.31 15.58-28.2 33.43-7.21 53.88 21.14 20.6 53.71 17.16 76.72-9.41-23.82-13.18-28.57-50.45-69.51-44.47zm37.26-120.61c-18.51 2.15-36.04 7.67-36.37 29.66-0.25 17.2 9.16 32.52 25.87 38.71 18.97 7.03 31.14-7.34 41-20.04 15.29-19.69 5.98-35.78-30.5-48.33z"/>
	<path class="s0" d="m5952.06 495.45c11.54 15.92 21.83 30.01 34.85 47.85 6.61-47.91-2.38-91.42 2.32-134.33 1.44-13.25-9.54-39.35 17.39-37.97 23.72 1.21 16.93 24.84 17.05 39.87 0.43 58.78 4.36 117.61-1.31 176.37-0.84 8.76 4.73 20.22-7.74 23.65-12.58 3.45-21.9-4.99-28.79-14.23-27.76-37.24-54.72-75.08-82.6-112.23-9.6-12.79-15.2-29.24-37.59-40.8 0 44.49 1 85.01-0.53 125.43-0.54 14.17 10.83 38.89-14.81 39.7-27.48 0.87-18.56-24.91-18.82-40.42-0.91-54.7-0.48-109.44 0.28-164.16 0.16-11.61-4.67-27.8 10.02-32.96 15.98-5.6 27.48 6.95 35.96 18.6 24.92 34.19 48.79 69.15 74.32 105.63z"/>
	<path class="s0" d="m6083.9 710.77c18.02 25.32 34.87 48.76 51.35 72.44 16.42 23.59 32.49 47.43 55.1 70.58 0-47.49-0.37-94.98 0.25-142.47 0.15-12.16-5.85-31.14 14.29-31.58 20.93-0.46 18.23 19 18.27 32.69 0.16 58.78-0.27 117.56-1.13 176.33-0.15 10.72 2.4 24.96-11.17 29.43-15.13 4.97-24.94-5.47-33.04-17-36.07-51.37-72.18-102.71-113.84-161.97 0 56.47 0.17 104.36-0.11 152.24-0.07 12.02 2.11 27.14-16.26 27.63-20.52 0.54-18.2-15.56-18.14-28.77 0.31-58.79 0.54-117.58 1.63-176.35 0.23-12.29-6.22-29.56 11.87-34.33 15.07-3.97 24.01 8.75 32.48 19.22 2.59 3.2 4.75 6.74 8.45 11.91z"/>
	<path class="s0" d="m3285.88 582.62c-46.98-53.07-53.27-111.11-19.15-162.8 30.03-45.48 91.16-64.99 145.52-45.01 72.29 26.56 93.97 94.21 71.84 162.03-21.06 64.51-104.26 94.46-167.68 65.12-10.18-4.71-19.26-11.82-30.53-19.34zm132.2-167.67c-6.61-2.83-13.06-6.17-19.87-8.4-48.23-15.79-101.45 11.79-112.29 58-13.81 58.87 16.32 106.66 72.23 114.59 35.56 5.04 76.41-17.56 91.15-50.42 17.23-38.4 6.74-81.12-31.22-113.77z"/>
	<path class="s0" d="m5130.44 590.27c-75.45 39.5-150.03 21.04-180.62-42.92-29.05-60.74-9.92-131.72 43.9-162.9 56.26-32.59 130.96-17.45 166.19 33.68 39.23 56.94 28.11 125.94-29.47 172.14zm-42.14-183.63c-5.98-1.56-11.88-3.66-17.96-4.59-46.35-7.03-93.31 28.21-98.13 73.44-6.26 58.63 26.32 100.31 80.22 102.63 44.6 1.92 79.76-22.55 91-63.31 12.35-44.82-5.7-82.84-55.13-108.17z"/>
	<path class="s0" d="m5658.45 765.88c34.52-88.56 131.12-117.97 198.99-62.77 43.39 35.29 57.34 105.57 30.68 154.58-27.72 50.94-96.26 76.88-152.53 57.72-52.87-18-88.05-75.6-80.51-131.93 0.68-5.1 1.83-10.14 3.37-17.6zm33.64 11.8c-0.31 8.21-1.11 16.44-0.83 24.64 1.55 47.2 30.67 80.48 73.47 84.35 51.11 4.61 88.11-20.6 99.1-67.53 10.43-44.5-12.15-89.3-51.83-102.86-52.5-17.95-95.08 2.26-119.91 61.4z"/>
	<path class="s0" d="m5317.08 423.7c4.6-19.57-10.44-44.99 12.64-51.9 23.12-6.91 31.65 18.37 42.62 33.66 32.25 45 63.76 90.51 98.41 139.88 8.02-52.27 4.59-99.35 5.77-146.23 0.26-10.29-5.63-24.88 12.1-26.66 17.32-1.74 20.52 11.05 20.42 24.3-0.46 65.96-1.35 131.92-2.1 197.88-0.08 6.53-1.49 12.67-8.63 14.69-9.82 2.77-19.2 0.07-25.33-7.52-12.3-15.21-23.56-31.28-35.02-47.16-26.95-37.38-53.76-74.85-87.71-110.65 0 44.8 0.32 89.61-0.19 134.4-0.16 13.37 4.69 32.33-18.64 30.97-20.73-1.21-15.24-18.77-15.27-31.06-0.15-50.54 0.51-101.09 0.93-154.6z"/>
	<path class="s0" d="m4132.3 405.43c68.06 86.82 29.4 185.47-77 200.93-22.35 3.25-45.23 2.78-67.85 4.31-19.13 1.3-29.06-6.43-28.96-26.52 0.32-62.94 0.2-125.89 0.32-188.83 0.02-11.06 2.39-22.28 15.68-22.55 54.23-1.07 110.3-10.24 157.81 32.66zm-49.68 7.56c-21.79-7.87-44.35-8.7-67.19-7.63-13.27 0.62-21.97 5.92-21.91 20.26 0.19 44.35 0.57 88.7 1.08 133.04 0.11 8.94 3.42 14.98 13.53 17.74 40.36 11.06 96.69-10.98 113.07-45.06 19.36-40.3 4.64-90.61-38.58-118.35z"/>
	<path class="s0" d="m4625.58 834.4c-18.95 3.88-17.89 17.32-18.48 29.55-0.55 11.31-0.63 22.65-0.61 33.98 0.01 11.97-4.42 20.63-17.48 20.44-13.2-0.2-16.94-9.5-16.91-21.14q0.14-43.26 0.19-86.52c0.02-35.02 0.62-70.06-0.27-105.06-0.52-20.05 8.38-28.91 27.5-27.76 29.76 1.79 59.59 3.33 89.19 6.76 28.41 3.3 46.56 19.91 53.85 48 8.04 31 7.62 61.63-20.99 80.87-24.32 16.35-20.2 29.64-6.38 49.57 11.12 16.03 29.76 28.99 28.6 52.43-18.22 9.82-30.82 1.56-40.67-11.39-10.57-13.91-21.54-28.17-28.56-43.95-9.57-21.54-24.53-28.94-48.98-25.78zm61.25-38.25c22.26-10.05 29.07-26.81 24.32-50.54-4.92-24.58-22.03-30.09-43.1-31.57-11.32-0.8-22.61-2.13-33.91-3.22-19.95-1.9-26.9 7.21-27.63 27.07-2.38 64.37-1.56 65.82 63.34 61.65 4.11-0.26 8.19-1.03 16.98-3.39z"/>
	<path class="s0" d="m3443.58 788.71c0.04-26.83 1.07-50.61-0.22-74.26-1.24-22.83 5.16-34.12 30.76-34.21 21.62-0.07 43.15-0.46 64.74 1.19 46.6 3.56 64.39 16.25 75.56 54.8 11.35 39.2 4.51 56.11-35.01 85.81-4.08 3.07-8.79 5.3-12.87 7.71 16.13 32.03 40.91 53.71 52.36 84.35-22.49 10.16-36.03 2.7-46.58-11.68-11.58-15.79-24.07-31.43-32.43-48.92-10.6-22.16-28.57-21.88-47.01-19.2-21.81 3.17-13.25 22.02-14.76 34.99-1.18 10.18-0.32 20.6-0.48 30.91-0.19 12.25-5.5 19.67-18.74 18.97-12.05-0.64-15.38-8.72-15.4-19.05-0.05-36.11 0.03-72.21 0.08-111.41zm139.15-41.8c-13.66-27.74-67.54-47.6-94.73-35.09-5.08 2.34-7.63 5.94-9.39 11.14-18.61 55.01 7.96 87.06 64.69 75.94 24.48-4.79 44.9-16.57 39.43-51.99z"/>
	<path class="s0" d="m2581.49 699.27c0.73-16.47 9.65-19.45 21.29-19.12 26.8 0.75 53.7 0.29 80.39 2.38 38.03 2.98 59.9 22.01 68.35 56.56 9.05 37.02 0.35 58.04-33.57 81.34-4.17 2.86-8.14 6.04-12.98 9.66 9.34 32.32 40.08 52.43 48.76 85.71-19.79 8.7-32.59 0.92-42.58-11.7-12.78-16.15-25.96-32.48-35.52-50.55-11.22-21.22-28.69-22.55-47.31-18.46-18.79 4.13-11.06 21.61-12.52 33.8-1.21 10.19-0.37 20.61-0.65 30.92-0.37 13.91-7.38 21.14-21.55 19.78-14.22-1.37-14.3-11.45-14.15-22.66 0.91-64.98 1.36-129.97 2.04-197.66zm107.19 16.57c-17.29-1.82-34.54-4.01-51.87-5.3-8.24-0.62-15.95 0.58-20.2 10.11-20.76 46.59 3.39 82.89 53.02 79.2 2.04-0.15 4.14-0.03 6.13-0.43 18.33-3.7 38.16-7.33 42.19-29.3 4.06-22.17 1.51-43.61-29.27-54.28z"/>
	<path class="s0" d="m2749.97 609.23c-27.51-13.95-39.69-38.91-52.29-62.09-11.8-21.73-28.24-26.09-48.9-21.22-20.42 4.82-12.44 23.05-14.07 36.25-1.01 8.15-0.27 16.51-0.29 24.77-0.03 12.24-1.58 23.54-17.75 23.01-16.33-0.53-16.46-12.76-16.46-24.4-0.02-63.01 0.43-126.02 0.02-189.02-0.13-18.98 8.59-25.76 26.47-25.13 23.74 0.83 47.56-0.15 71.24 1.37 41.05 2.64 64.15 19.96 71.97 51.95 10.35 42.31 1.27 64.66-36.04 89.18-3.31 2.18-6.2 4.97-9.5 7.65 10.96 31.41 36.81 52.84 49.75 80.76-5.55 12.14-14.17 8.69-24.15 6.92zm-34.2-123.6c16.69-6.69 22.38-19.41 22.11-36.83-0.53-34.59-14.16-42.94-65.78-44.36-26.64-0.73-39.37 5.23-38.39 35.73 1.77 55.2 0.02 55.3 56.06 50.58 7.17-0.61 14.27-2.01 26-5.12z"/>
	<path class="s0" d="m2963.74 418.33c-43.19 41.7-45.55 102.99-7.18 138.54 37.35 34.6 96.5 28.05 134.65-14.93 1.37-1.54 2.51-3.28 3.88-4.82 7.64-8.55 17-20.07 28.22-12.08 13.77 9.8 2.58 22.65-3.48 32.59-24.29 39.84-84.15 62.52-133.59 51.41-53.35-11.98-93.34-61.56-93.93-116.48-0.58-53.12 37.22-105.75 86.15-119.97 55.13-16.01 115.71 6.89 142.39 54.12 4.51 7.98 8.96 16.34 6.23 27.94-17.66 6.64-27.51-4.86-38.03-16.43-39.55-43.49-71.96-48.88-125.31-19.89z"/>
	<path class="s0" d="m2992.14 886.59c7.08-0.03 11.25-0.43 15.32 0.02 13.28 1.47 33.64-5.46 33.56 16.14-0.06 18.12-19.05 15.47-31.74 15.95-30.93 1.15-61.92 0.71-92.86 1.74-18.86 0.62-29.43-5.79-29.07-26.29 1.13-63.94 2.3-127.89 2.42-191.84 0.03-18.25 9.41-23.82 24.76-23.79 35.03 0.09 70.06 0.55 105.09 1.27 8.98 0.18 16.65 4.05 16.41 14.54-0.22 9.73-6.49 15.04-16.06 15.21-23.72 0.43-47.46 0.34-71.19 0.61-13.87 0.16-31.08 0.68-26.31 20.07 4.53 18.42-12.23 50.56 26.92 51.17 19.61 0.3 39.23-0.19 58.81 0.5 10.93 0.39 21.55 3.87 20.37 17.66-1.03 11.96-11.35 13.44-20.91 13.65-19.6 0.43-39.21 0.63-58.81 0.4-27.62-0.34-24.26 19.39-24.07 36.8 0.19 17.17-3.81 37.44 24.16 36.59 13.41-0.41 26.83-0.27 43.2-0.4z"/>
	<path class="s0" d="m5022.05 871.73c-34.95-11.95-68.97-4.96-102.6-6.22-11.12-0.41-14.16 10.05-17.72 18.79-4.24 10.4-6.78 21.83-15.96 29.54-6.78 5.69-14.75 8.65-22.76 3.9-9.32-5.52-6.26-14.14-2.94-21.88 28.37-66.22 56.43-132.57 85.51-198.47 9.62-21.79 30.17-25.24 39.12-5.43 32.8 72.66 62.61 146.66 93.35 219.7-20.6 13.24-31.67 7.47-39.62-7.64-5.25-9.98-9.78-20.35-16.38-32.29zm-62.14-129.02c-11.49 29.03-22.97 58.07-35.53 89.8 29.47 0 53.78 0 83.85 0-13.07-33.4-24.67-63.77-36.99-93.85-1.97-4.82-6.69-3.13-11.33 4.05z"/>
	<path class="s0" d="m4427.59 709.87c-27.04 0.6-51.82 1.44-76.48 0.09-32.05-1.76-29.59 19.22-30.45 40.79-0.88 22.17 6.19 32.72 29.75 31.18 19.5-1.28 39.16-0.41 58.73 0.1 10.37 0.26 22.4 0.84 22.06 15.31-0.29 12.04-11.08 13.97-20.36 14.54-19.53 1.2-39.24 2.96-58.67 1.59-31.63-2.24-30.32 17.17-31.14 39.54-0.92 25.17 7.18 36.17 33.28 34.09 20.49-1.63 41.21-0.59 61.82-0.45 9.49 0.06 19.73 0.7 21.01 13.02 1.47 14.04-9.66 17.96-19.96 18.34-36.02 1.34-72.09 1.58-108.15 1.78-15.5 0.09-21.83-9.29-21.86-23.91-0.14-63.91-0.21-127.82-0.48-191.72-0.06-13.02 3.6-22.26 18.63-22.74 36.04-1.17 72.09-3.79 108.09-3.15 19.01 0.34 34.15 8.26 14.18 31.6z"/>
	<path class="s0" d="m2083.16 580.44c26.35-61.95 51.5-121.87 76.96-181.66 5.03-11.81 6.73-27.69 24.66-27.55 15.21 0.12 20.56 12.75 25.34 23.98 27.4 64.48 54.33 129.17 81.29 193.84 2.38 5.71 3.94 11.82-1.29 19.03-18.2 7.46-28.8-3.16-33.5-19.32-8.21-28.26-26.7-36.68-53.91-33.44-10.18 1.22-20.79 1.48-30.91 0.06-29.54-4.16-49.87 3.82-57.42 35.79-3.43 14.55-15.44 23.72-30.69 17.57-14.68-5.92-4.57-17.13-0.53-28.3zm74.42-91.23c-2 10.75-11.83 19.31-8.86 33.21 24.66 5.93 49.36 4.31 78.61 0.45-13.39-34.7-25.79-66.87-40.83-105.86-11.35 28.06-19.37 47.9-28.92 72.2z"/>
	<path class="s0" d="m3312.07 700.68c-24.39 16.27-49.65 7.88-73.71 8.41-22.07 0.48-33.44 5.89-29.72 30.06 1.22 8 0.35 16.56-0.94 24.65-2.93 18.41 6.27 24.08 22.74 23.91 17.53-0.19 35.07-0.03 52.58 0.53 10.24 0.33 22.8 0.04 22.09 14.91-0.63 12.99-12 15.86-22.62 16.39-16.46 0.82-33 1.14-49.47 0.5-18.53-0.72-26.11 6.21-24.35 25.61 1.58 17.33-0.2 34.97-0.36 52.47-0.1 11.36-2.65 20.79-16.41 21.48-12.89 0.64-19.6-6.56-19.6-18.62-0.04-67.01 0.35-134.03 0.73-201.05 0.08-14.06 8.58-20.67 21.66-20.86 33.94-0.48 67.9-0.86 101.82-0.13 10.85 0.23 20.73 4.83 15.56 21.74z"/>
	<path class="s0" d="m4530.33 552.67c-0.04-42.31-1.38-81.62 0.36-120.8 0.92-20.82-5.81-28.41-26.03-26.83-11.26 0.89-22.74 0.31-34.02-0.72-10.31-0.94-17.45-6.64-17.66-17.88-0.24-12.77 8.67-15.05 18.79-15.05 51.66 0.02 103.31 0.03 154.96 0.34 9.23 0.05 20.13 0.17 21.06 12.84 0.93 12.51-7.18 18.46-18.96 19.9-18.92 2.32-43.72-8.55-55.33 8.98-11.63 17.59-3.75 42.3-4.2 63.86-0.73 35.11-0.35 70.25-0.43 105.38-0.04 14.14-0.58 28.04-20.33 27.41-17.84-0.57-17.97-13.72-18.19-26.5-0.17-9.29-0.03-18.59-0.02-30.93z"/>
	<path class="s0" d="m5246.58 719.65c-16.66-15.08-34.81-6.67-51.76-8.29-12.27-1.16-23.99-4.52-24.27-18.48-0.26-13.07 12.41-11.28 21.13-12.29 52.57-6.1 105.05 2.94 157.63 1.16 9.08-0.3 16.2 4.62 16.36 14.81 0.16 9.89-6.46 14.66-15.38 16.43-4 0.79-8.19 0.79-12.3 0.95-50.41 2.02-50.44 2.01-50.72 51.61-0.24 41.3-0.19 82.61-0.72 123.9-0.18 13.42 0.13 29.39-19.09 29.28-19.42-0.11-18.31-16.18-18.46-29.55-0.63-55.72-0.96-111.45-2.42-169.53z"/>
	<path class="s0" d="m5684.88 417.37c0 56.47 0.08 109.92-0.05 163.37-0.03 13.18 2.37 28.71-17.9 29.16-19.86 0.44-19.77-14.78-19.61-28.15 0.74-60.62 1.95-121.23 3.23-181.84 0.25-12.01-1.86-26.91 16.58-27.12 17.6-0.2 18.08 13.16 17.86 26.15-0.09 5.14-0.07 10.28-0.11 18.43z"/>
	<path class="s0" d="m3753.43 712.55c1.19-14.47-7.68-32.43 15.44-31.73 19.16 0.58 18.66 15.5 18.66 29.38 0 59.88 0.23 119.76 0 179.64-0.05 12.99 2.48 29.35-17.76 29.66-21.75 0.33-20.21-16.59-19.96-31.02 1.01-57.77 2.4-115.54 3.62-175.93z"/>
	<path class="s0" d="m4804.82 552.73c-0.06 10.26 0.5 17.55-0.29 24.68-1.44 12.99 6.25 32.08-17.08 32.51-23.12 0.43-18.01-17.96-18.02-31.52-0.03-54.65-0.62-109.34 1.43-163.92 0.53-14.14-14.81-40.81 14.51-41.08 29.3-0.27 18.45 27.05 18.95 43.29 1.37 44.3 0.5 88.66 0.5 136.04z"/>
	<path class="s0" d="m5524.1 892.42c0.15 16.5-2.19 28.27-19.82 27.2-16.36-1-15.68-12.77-15.57-24.67 0.56-61.84 0.78-123.69 1.33-185.53 0.11-12-2.68-27.03 15.85-27.74 20.79-0.8 18.11 15.34 18.14 28.49 0.14 59.78 0.08 119.57 0.07 182.25z"/>
	<path class="s0" d="m2414.26 430.18c-0.15-15.31 0.09-27.72-0.57-40.08-0.61-11.38 3.45-17.93 15.48-17.91 10.91 0.02 17.85 5.21 18.62 16.33 0.78 11.31 0.73 22.69 0.76 34.04 0.12 51.63 0.5 103.26-0.07 154.88-0.15 13 6.18 32.72-17.22 32.06-19.76-0.56-16.41-18.12-16.55-30.8-0.55-48.52-0.36-97.05-0.45-148.52z"/>
	<path class="s0" d="m4298.1 579.51c0.31-61.46 0.38-120.22 0.94-178.99 0.11-11.69-3.16-27.39 15.6-27.86 20.04-0.51 18.5 15.45 18.56 28.79 0.28 60.83 0.35 121.66 0.45 182.49 0.01 12.58 1.05 26.08-17.44 26.39-20.97 0.36-18.48-14.64-18.11-30.82z"/>
</svg>