<svg version="1.1" id="Layer_1" xmlns="http://www.w3.org/2000/svg" xmlns:xlink="http://www.w3.org/1999/xlink" x="0px" y="0px"
	 width="100%" viewBox="0 0 1024 1008" enable-background="new 0 0 1024 1008" xml:space="preserve">
<path fill="#000000" opacity="1.000000" stroke="none" 
	d="
M546.442383,478.498718 
	C509.240295,500.824829 471.273834,502.758240 432.900574,483.368866 
	C417.251587,475.461670 405.503815,462.941040 398.555359,446.375702 
	C396.835175,442.274841 397.121338,439.963135 401.546143,437.807800 
	C408.869873,434.240417 415.795898,429.858368 422.905609,425.848114 
	C424.033813,425.211731 425.060516,424.199280 426.658539,424.567627 
	C429.048187,426.398987 428.136414,429.454620 429.091705,431.874939 
	C432.536865,440.603668 438.237274,447.366425 446.347229,451.931641 
	C461.881195,460.676025 478.409210,464.128662 496.337341,462.231476 
	C511.215149,460.657104 523.951355,455.048676 534.922058,445.224731 
	C546.524109,434.835480 547.931519,419.959747 538.405457,407.566956 
	C530.662903,397.494354 520.053528,391.948364 507.735229,389.305756 
	C494.525665,386.471954 481.088013,385.236298 467.757202,383.252075 
	C449.818634,380.582062 433.191010,374.609314 419.016937,362.930817 
	C403.844391,350.429626 394.710419,334.428009 394.233307,314.678772 
	C393.763092,295.217010 402.202301,278.894592 416.680756,266.368896 
	C440.181427,246.037857 467.989288,239.344833 498.618164,242.433426 
	C515.392761,244.124954 530.762878,249.464203 544.959534,258.350159 
	C558.049561,266.543457 567.422913,277.992462 573.948120,291.916168 
	C575.594666,295.429657 575.145996,297.682800 571.512512,299.611450 
	C563.164795,304.042297 554.981995,308.783752 546.855286,313.330261 
	C546.040466,312.572723 545.444275,312.291779 545.357483,311.898468 
	C541.397156,293.952148 528.309937,284.939636 512.390259,279.578339 
	C490.586853,272.235565 469.058014,273.671631 448.507385,284.474548 
	C442.581848,287.589447 437.284607,291.682556 433.388550,297.274078 
	C425.981873,307.904053 426.392151,320.448029 434.449066,330.639526 
	C442.740723,341.127899 453.900238,346.538361 466.822693,348.744171 
	C482.573120,351.432709 498.428955,353.605438 514.062622,356.851562 
	C535.785156,361.361877 554.537659,371.162354 567.258606,390.223083 
	C588.015625,421.324860 577.143433,456.254700 550.088745,476.108490 
	C549.015991,476.895752 547.862488,477.572845 546.442383,478.498718 
z"/>
<path fill="#000000" opacity="1.000000" stroke="none" 
	d="
M757.094116,355.989655 
	C777.119995,401.542694 796.990479,446.749359 816.737305,491.674774 
	C814.911011,493.537903 813.328369,493.164398 811.885010,493.174286 
	C803.552307,493.231537 795.215698,493.086853 786.887878,493.301605 
	C783.007446,493.401672 780.801575,491.990143 779.273132,488.372833 
	C773.957153,475.791290 768.254395,463.372803 762.971313,450.777954 
	C761.339294,446.887238 759.296326,445.209564 754.816833,445.235901 
	C720.818787,445.435913 686.818726,445.410431 652.820129,445.266937 
	C649.004333,445.250824 647.131287,446.685577 645.660278,449.992676 
	C639.975464,462.774017 633.964661,475.410950 628.338013,488.217072 
	C626.773376,491.778107 624.698853,493.365173 620.794373,493.278107 
	C612.132202,493.084900 603.463501,493.167023 594.797424,493.173737 
	C590.871948,493.176758 589.803589,492.026306 591.656433,488.038208 
	C628.294556,409.177765 664.818298,330.264221 701.376221,251.366501 
	C702.755005,248.390793 704.242065,245.465225 707.073547,242.235443 
	C723.695312,280.038055 740.317017,317.840668 757.094116,355.989655 
M691.070068,351.501892 
	C682.016846,371.279114 672.963684,391.056335 663.598267,411.515747 
	C691.191406,411.515747 717.987610,411.515747 745.796875,411.515747 
	C732.214111,381.181396 718.978149,351.621704 705.264160,320.994293 
	C700.222961,331.829041 695.805054,341.324005 691.070068,351.501892 
z"/>
<path fill="#000000" opacity="1.000000" stroke="none" 
	d="
M339.847015,246.288513 
	C341.110107,243.946350 343.061798,244.094452 344.851929,244.079803 
	C352.181366,244.019745 359.512848,244.125366 366.840942,244.007141 
	C370.585205,243.946747 372.234406,245.343857 372.225677,249.284134 
	C372.126221,294.262909 372.839447,339.257629 371.843597,384.215027 
	C371.242157,411.365051 364.267395,437.241333 347.558533,459.569244 
	C314.021027,504.385162 245.387039,509.466919 206.275284,462.276825 
	C201.587143,456.620422 197.534988,450.539307 194.244583,443.934692 
	C192.898193,441.232178 193.306061,439.772858 196.068802,438.449860 
	C202.674103,435.286682 209.158249,431.871033 215.700211,428.574921 
	C221.885468,425.458618 221.899536,425.463440 225.217285,431.405731 
	C232.633652,444.688965 242.854492,455.103882 257.647034,459.464142 
	C284.683105,467.433228 313.112793,458.277466 327.653717,429.835480 
	C334.904846,415.652374 338.497559,400.392975 338.677155,384.600952 
	C339.118439,345.799774 338.973358,306.992126 339.134338,268.187347 
	C339.164032,261.030914 339.523651,253.875854 339.847015,246.288513 
z"/>
<path fill="#000000" opacity="1.000000" stroke="none" 
	d="
M108.444504,747.587280 
	C140.547256,801.460449 182.176651,846.155212 232.172119,883.202942 
	C272.404449,913.015991 316.465454,935.352112 363.949249,951.179993 
	C400.684021,963.424988 438.392273,970.090515 476.932312,972.995300 
	C504.170654,975.048279 531.173523,972.805603 558.183105,970.070007 
	C580.232605,967.836792 602.042725,964.115479 623.502869,958.483032 
	C625.062134,958.073730 627.241455,957.212769 627.652588,959.547791 
	C628.117981,962.191650 627.522217,964.970825 624.665344,966.338013 
	C620.875610,968.151611 616.743408,968.816040 612.670410,969.688171 
	C572.785461,978.227783 532.530945,983.080505 491.678986,981.198669 
	C448.084534,979.190430 405.346710,972.375061 363.724670,958.724609 
	C299.025696,937.505920 240.970947,905.021240 190.509613,859.070679 
	C128.940720,803.005493 84.806595,735.672913 58.525105,656.644409 
	C55.264030,646.838379 52.379040,636.937561 50.107658,626.850647 
	C49.427353,623.829468 50.118637,621.966125 53.248959,621.288208 
	C56.435463,620.598083 56.670300,622.902405 57.228077,625.073914 
	C67.268524,664.162720 82.074768,701.336548 102.061104,736.422424 
	C104.122612,740.041443 106.197044,743.653015 108.444504,747.587280 
z"/>
<path fill="#000000" opacity="1.000000" stroke="none" 
	d="
M956.401001,358.729736 
	C959.196533,367.333649 961.883789,375.560730 964.514771,383.805817 
	C965.171326,385.863312 965.745605,387.958466 966.177917,390.073090 
	C966.649475,392.379852 967.209595,394.931671 963.985413,395.768433 
	C960.860840,396.579346 959.981323,394.373688 959.244080,391.978271 
	C956.843933,384.180481 954.381104,376.402069 951.952087,368.613159 
	C932.848755,307.356354 902.474976,252.403580 860.645752,203.661545 
	C822.172791,158.830338 776.432129,123.288239 724.591370,95.367813 
	C680.204529,71.461929 632.911316,55.894810 583.273438,47.658276 
	C547.669739,41.750473 511.761169,40.586704 475.730042,42.972416 
	C450.257172,44.659039 425.144409,48.575062 400.258667,54.177589 
	C397.051514,54.899616 394.164154,56.889172 390.743866,56.684082 
	C389.357605,51.311478 390.643372,48.953411 395.526550,47.821003 
	C439.895874,37.531776 484.825989,32.787861 530.351013,35.009617 
	C590.725952,37.956089 648.361023,52.191589 703.578369,76.919678 
	C767.370239,105.487663 821.398865,147.053284 866.925903,199.559250 
	C906.068176,244.701645 935.057861,296.009918 954.272400,352.706940 
	C954.913818,354.599609 955.604309,356.475708 956.401001,358.729736 
z"/>
<path fill="#000000" opacity="1.000000" stroke="none" 
	d="
M491.574402,670.197876 
	C494.512024,670.640564 495.113037,672.189758 494.908936,674.560364 
	C494.102997,683.921387 486.741608,691.485840 477.519775,692.281494 
	C467.099884,693.180481 459.033630,687.331238 456.608917,677.117920 
	C454.308014,667.426086 458.717194,658.366272 467.604828,654.524109 
	C476.700317,650.592102 487.282288,653.691772 492.273651,661.750122 
	C493.155640,663.174072 493.155670,663.174072 492.740509,666.407104 
	C489.660950,667.175598 488.374329,664.623291 486.650146,663.010925 
	C480.343750,657.113464 473.133881,656.620117 466.872528,661.734924 
	C461.132141,666.424133 460.407349,676.554749 465.391174,682.439880 
	C470.007324,687.890869 479.081543,688.521118 484.773010,683.647400 
	C486.892090,681.832703 488.877563,679.762268 488.452057,676.352661 
	C484.865906,675.265198 481.404083,676.384949 477.984222,676.187866 
	C475.877106,676.066528 473.670776,675.930298 473.632355,673.243164 
	C473.594421,670.589905 475.913147,670.850647 477.693054,670.756714 
	C482.178680,670.519958 486.667786,670.348999 491.574402,670.197876 
z"/>
<path fill="#000000" opacity="1.000000" stroke="none" 
	d="
M847.711304,638.855835 
	C838.241394,644.326111 830.698792,644.130798 823.773254,638.468811 
	C817.451538,633.300354 814.910767,623.950684 817.713440,615.762390 
	C820.388000,607.948181 826.351257,603.968323 834.158875,603.131165 
	C841.627563,602.330261 847.841248,605.306030 852.230225,611.562195 
	C853.257568,613.026489 854.315308,614.606262 853.792480,616.868530 
	C850.682434,618.007812 849.528870,615.233643 847.910278,613.694641 
	C841.581299,607.676697 833.939758,606.823669 827.586121,611.554871 
	C822.554199,615.301819 821.014954,621.862488 823.559753,628.716431 
	C825.638855,634.315979 831.251831,637.999084 836.766724,637.382446 
	C843.495667,636.630188 847.806519,632.922119 848.876038,626.746155 
	C845.673340,625.635010 842.349121,626.386169 839.097229,626.271179 
	C836.887451,626.193054 834.270935,626.384521 834.161926,623.436401 
	C834.052551,620.477783 836.811768,620.989929 838.657288,620.909058 
	C842.646851,620.734314 846.651794,620.896667 850.639404,620.698303 
	C854.547363,620.503906 855.621399,622.466919 855.210449,625.939453 
	C854.588745,631.193298 851.972412,635.290039 847.711304,638.855835 
z"/>
<path fill="#000000" opacity="1.000000" stroke="none" 
	d="
M417.669464,608.357056 
	C423.026001,615.754639 428.157837,622.872192 433.533051,630.327332 
	C435.204956,628.197571 434.586121,626.168091 434.629669,624.348633 
	C434.756989,619.028625 434.649506,613.703369 434.740234,608.381958 
	C434.774353,606.380310 433.980499,603.509949 437.463745,603.713379 
	C440.600067,603.896545 440.127869,606.574829 440.156067,608.680237 
	C440.218506,613.337036 440.224213,617.994690 440.228210,622.652039 
	C440.232513,627.642029 440.265625,632.633179 440.164551,637.621338 
	C440.130707,639.292786 441.100006,641.591309 438.536499,642.244385 
	C436.280334,642.819092 434.804260,641.309204 433.575378,639.627625 
	C429.454285,633.988525 425.334869,628.348145 421.221405,622.703430 
	C419.487854,620.324524 417.770813,617.933594 415.092072,615.780151 
	C415.092072,622.506714 415.214905,629.236694 415.024750,635.957886 
	C414.959137,638.275391 416.459442,642.074585 412.157898,642.075378 
	C407.663757,642.076172 408.978302,638.167603 408.956299,635.631775 
	C408.878357,626.652405 409.005432,617.670776 409.113037,608.690735 
	C409.135620,606.806519 408.299835,604.365601 410.887634,603.549683 
	C413.161926,602.832520 414.518036,604.653198 415.834869,606.171082 
	C416.379761,606.799194 416.908630,607.441284 417.669464,608.357056 
z"/>
<path fill="#000000" opacity="1.000000" stroke="none" 
	d="
M165.584793,690.694458 
	C157.618027,684.199280 158.056931,678.901428 166.936523,671.586182 
	C166.007111,667.452942 161.528915,664.139038 163.721115,659.141235 
	C164.616028,657.101013 165.797470,655.421936 167.849106,654.350952 
	C173.344299,651.482117 180.095398,652.406189 183.389877,656.571472 
	C187.144592,661.318604 185.883987,665.148499 177.300781,674.352356 
	C179.216843,676.465271 181.166916,678.615723 183.167679,680.822083 
	C185.516373,679.288086 185.033310,676.782776 186.034821,674.988647 
	C186.825653,673.571899 187.926056,672.543518 189.645248,673.069763 
	C191.245056,673.559448 191.195633,675.033142 191.175140,676.388428 
	C191.172638,676.554199 191.178589,676.730713 191.126312,676.883606 
	C190.224594,679.520752 188.830887,682.103210 188.541763,684.804321 
	C188.251816,687.513123 193.001495,687.789124 192.560226,691.071838 
	C191.345749,692.627136 189.574951,692.524475 188.505142,691.650391 
	C185.021179,688.803650 181.952072,690.207153 178.476379,691.693970 
	C174.307236,693.477417 169.998138,692.823242 165.584793,690.694458 
M168.482300,676.888306 
	C165.206924,679.401123 163.933655,682.280396 167.319275,685.579224 
	C170.728226,688.900696 175.981293,688.347229 179.692841,684.060730 
	C175.850937,681.935425 175.084808,675.923767 168.482300,676.888306 
M174.491974,657.435913 
	C171.505920,657.784119 168.679169,658.672913 168.626450,662.220764 
	C168.585236,664.994507 170.103455,667.464478 172.798294,668.463196 
	C175.857056,669.596863 177.819824,667.279236 179.410034,665.231506 
	C181.876022,662.056091 180.375519,659.460632 174.491974,657.435913 
z"/>
<path fill="#000000" opacity="1.000000" stroke="none" 
	d="
M784.314392,623.704590 
	C786.174866,626.272339 787.834473,628.544983 789.935486,631.422119 
	C791.001648,623.693909 789.551758,616.676636 790.308411,609.756348 
	C790.541992,607.619446 788.770264,603.410828 793.113708,603.632690 
	C796.939148,603.828247 795.845215,607.638489 795.863098,610.063538 
	C795.932983,619.543518 796.567139,629.031311 795.653259,638.507812 
	C795.516907,639.921265 796.415833,641.770325 794.403381,642.323059 
	C792.375854,642.879822 790.872742,641.518494 789.761047,640.027588 
	C785.283020,634.022034 780.935852,627.918640 776.439270,621.927307 
	C774.890625,619.863892 773.986877,617.211792 770.376831,615.346008 
	C770.376831,622.521790 770.536682,629.056885 770.290283,635.576599 
	C770.203918,637.862244 772.037720,641.849182 767.901733,641.979492 
	C763.470337,642.119141 764.908020,637.961914 764.866638,635.460449 
	C764.720581,626.637268 764.789917,617.808716 764.912048,608.984131 
	C764.937988,607.111755 764.158569,604.499756 766.527466,603.668762 
	C769.104553,602.764709 770.959839,604.789429 772.328430,606.667725 
	C776.346985,612.182617 780.197327,617.820068 784.314392,623.704590 
z"/>
<path fill="#000000" opacity="1.000000" stroke="none" 
	d="
M805.577637,658.431519 
	C808.484619,662.515930 811.201050,666.295715 813.860046,670.115540 
	C816.508667,673.920410 819.099670,677.765320 822.745789,681.499268 
	C822.745789,673.839661 822.687439,666.179260 822.785950,658.520874 
	C822.811218,656.559692 821.843323,653.497925 825.091858,653.427002 
	C828.467285,653.353333 828.031250,656.491577 828.037415,658.699219 
	C828.063904,668.179199 827.995239,677.660095 827.856628,687.139160 
	C827.831299,688.867615 828.243347,691.164917 826.054260,691.884827 
	C823.613770,692.687439 822.031738,691.003662 820.725464,689.143127 
	C814.908386,680.858154 809.084290,672.578125 802.365295,663.019653 
	C802.365295,672.127441 802.391785,679.851318 802.346863,687.574768 
	C802.335510,689.511902 802.688416,691.951477 799.724304,692.029907 
	C796.415955,692.117432 796.789001,689.520569 796.799988,687.390198 
	C796.848877,677.909058 796.886047,668.427124 797.062195,658.947998 
	C797.098999,656.965271 796.058594,654.180969 798.976929,653.411377 
	C801.406494,652.770569 802.848206,654.821533 804.215271,656.511475 
	C804.632629,657.027466 804.981689,657.598633 805.577637,658.431519 
z"/>
<path fill="#000000" opacity="1.000000" stroke="none" 
	d="
M354.304443,637.763306 
	C346.727173,629.203857 345.713715,619.842896 351.216522,611.506958 
	C356.058685,604.171814 365.917786,601.024170 374.686676,604.246704 
	C386.344818,608.531006 389.842072,619.440918 386.272308,630.379333 
	C382.876434,640.784851 369.456390,645.614136 359.228271,640.882568 
	C357.585968,640.122803 356.122406,638.976685 354.304443,637.763306 
M375.626526,610.721252 
	C374.559418,610.265259 373.519501,609.726257 372.420837,609.366577 
	C364.642853,606.819702 356.059326,611.268188 354.310852,618.720642 
	C352.083313,628.215027 356.942719,635.923645 365.961029,637.201599 
	C371.696198,638.014404 378.284119,634.370605 380.661774,629.070557 
	C383.440216,622.877075 381.748016,615.986328 375.626526,610.721252 
z"/>
<path fill="#000000" opacity="1.000000" stroke="none" 
	d="
M651.801086,638.996826 
	C639.631714,645.368225 627.602966,642.390259 622.670288,632.075195 
	C617.985107,622.277771 621.070190,610.830139 629.750916,605.801575 
	C638.823303,600.545959 650.872314,602.987854 656.553406,611.233459 
	C662.881470,620.418030 661.088135,631.545105 651.801086,638.996826 
M645.004517,609.380005 
	C644.039551,609.129028 643.088013,608.789917 642.107544,608.641113 
	C634.632080,607.506531 627.058594,613.190613 626.280579,620.485840 
	C625.272217,629.941772 630.526672,636.663635 639.219177,637.037781 
	C646.412109,637.347351 652.083740,633.401184 653.895447,626.826294 
	C655.887146,619.598755 652.976929,613.466003 645.004517,609.380005 
z"/>
<path fill="#000000" opacity="1.000000" stroke="none" 
	d="
M736.960693,667.320312 
	C742.526733,653.036133 758.107544,648.293030 769.053162,657.195557 
	C776.051941,662.887939 778.301636,674.222778 774.001465,682.126831 
	C769.531433,690.342957 758.476807,694.526123 749.400757,691.436096 
	C740.873962,688.532959 735.200439,679.244202 736.416626,670.159302 
	C736.526794,669.336304 736.711792,668.523254 736.960693,667.320312 
M742.385498,669.222656 
	C742.336243,670.547485 742.207275,671.874878 742.250854,673.196655 
	C742.501709,680.809204 747.197815,686.177856 754.101501,686.801331 
	C762.344177,687.545593 768.311707,683.479370 770.084778,675.910400 
	C771.765991,668.733398 768.125305,661.507935 761.725708,659.320496 
	C753.258118,656.426147 746.390320,659.685181 742.385498,669.222656 
z"/>
<path fill="#000000" opacity="1.000000" stroke="none" 
	d="
M681.903320,612.132507 
	C682.644958,608.976318 680.218323,604.875854 683.942078,603.762390 
	C687.670288,602.647522 689.045898,606.723694 690.814575,609.191162 
	C696.015869,616.447632 701.098938,623.788879 706.687439,631.751038 
	C707.980225,623.321228 707.426636,615.728027 707.618164,608.166138 
	C707.660217,606.506653 706.709106,604.152893 709.568542,603.865967 
	C712.362427,603.585693 712.878296,605.648071 712.863403,607.784973 
	C712.789246,618.423462 712.644836,629.061401 712.523682,639.699585 
	C712.511658,640.753723 712.284058,641.744080 711.132385,642.069153 
	C709.547913,642.516296 708.036072,642.080444 707.046387,640.856506 
	C705.062500,638.403015 703.246704,635.811707 701.399353,633.250000 
	C697.052612,627.222046 692.727966,621.178162 687.252930,615.404785 
	C687.252930,622.630310 687.304810,629.856445 687.221191,637.080994 
	C687.196228,639.237732 687.977661,642.294922 684.216248,642.075317 
	C680.872925,641.880127 681.758057,639.048523 681.752319,637.066650 
	C681.728455,628.914612 681.834412,620.762207 681.903320,612.132507 
z"/>
<path fill="#000000" opacity="1.000000" stroke="none" 
	d="
M490.817383,609.185913 
	C501.794281,623.188904 495.559479,639.099365 478.398773,641.592285 
	C474.793823,642.116028 471.103912,642.041138 467.456238,642.288086 
	C464.370575,642.497009 462.768372,641.250671 462.785065,638.010132 
	C462.837402,627.858459 462.816742,617.706482 462.836884,607.554626 
	C462.840424,605.771606 463.221466,603.960876 465.366333,603.918579 
	C474.111755,603.746277 483.155975,602.267029 490.817383,609.185913 
M482.805511,610.405029 
	C479.290405,609.135925 475.652344,609.002075 471.968536,609.174622 
	C469.828064,609.274841 468.425476,610.129639 468.435242,612.441101 
	C468.465454,619.594116 468.527466,626.747070 468.609802,633.899658 
	C468.626404,635.340942 469.161224,636.314392 470.790619,636.760681 
	C477.301178,638.543518 486.385895,634.989319 489.027191,629.492432 
	C492.149902,622.993591 489.776550,614.878235 482.805511,610.405029 
z"/>
<path fill="#000000" opacity="1.000000" stroke="none" 
	d="
M570.375732,678.371887 
	C567.319824,678.997559 567.489990,681.163879 567.394531,683.136780 
	C567.306213,684.961121 567.293701,686.790466 567.295898,688.617554 
	C567.298157,690.547913 566.584290,691.945190 564.477295,691.913757 
	C562.347717,691.881958 561.744812,690.382751 561.750488,688.505310 
	C561.764465,683.853699 561.776855,679.202148 561.780151,674.550537 
	C561.784119,668.902100 561.880920,663.251099 561.736633,657.606323 
	C561.653992,654.372803 563.088562,652.944092 566.172913,653.129211 
	C570.972839,653.417297 575.783813,653.665588 580.556580,654.219727 
	C585.139465,654.751831 588.066772,657.430481 589.241760,661.960754 
	C590.538452,666.960022 590.471680,671.901123 585.857056,675.003418 
	C581.933960,677.640808 582.599060,679.784058 584.827759,682.998108 
	C586.620789,685.583862 589.628601,687.673401 589.440247,691.454163 
	C586.501526,693.037476 584.470764,691.706604 582.881470,689.616943 
	C581.176208,687.374756 579.407043,685.074585 578.275330,682.528687 
	C576.731445,679.055481 574.319641,677.862183 570.375732,678.371887 
M580.254761,672.201477 
	C583.844788,670.581726 584.943237,667.878052 584.176758,664.050598 
	C583.382751,660.086060 580.623108,659.197449 577.225464,658.958679 
	C575.399170,658.830383 573.579041,658.614990 571.756042,658.440552 
	C568.538696,658.132629 567.417664,659.602417 567.299194,662.806030 
	C566.915222,673.188354 567.048706,673.421265 577.515869,672.749146 
	C578.179077,672.706604 578.837097,672.583191 580.254761,672.201477 
z"/>
<path fill="#000000" opacity="1.000000" stroke="none" 
	d="
M379.738403,671.001648 
	C379.744873,666.675476 379.911133,662.840088 379.703796,659.024902 
	C379.503723,655.343384 380.535980,653.521606 384.664795,653.508362 
	C388.151794,653.497131 391.623260,653.433167 395.106445,653.699341 
	C402.621704,654.273621 405.491486,656.321167 407.292419,662.538757 
	C409.123199,668.859558 408.020111,671.587402 401.646545,676.378052 
	C400.988037,676.873047 400.227631,677.232544 399.570099,677.622009 
	C402.172058,682.786560 406.168549,686.283997 408.015228,691.225952 
	C404.387817,692.863953 402.203461,691.660645 400.502747,689.341431 
	C398.635468,686.795044 396.621155,684.272156 395.272125,681.451477 
	C393.563049,677.877930 390.663666,677.922241 387.690155,678.354980 
	C384.171906,678.867004 385.552612,681.906921 385.309753,683.997803 
	C385.118896,685.640686 385.258759,687.320984 385.232452,688.984314 
	C385.201233,690.959290 384.344818,692.156799 382.209930,692.043518 
	C380.266174,691.940369 379.728760,690.637268 379.726196,688.970337 
	C379.717163,683.147278 379.730164,677.324280 379.738403,671.001648 
M402.180847,664.260742 
	C399.977631,659.785889 391.288849,656.582703 386.903076,658.601562 
	C386.084106,658.978638 385.671814,659.558899 385.387939,660.397949 
	C382.386444,669.270264 386.673126,674.439087 395.821564,672.646240 
	C399.769501,671.872498 403.063599,669.973083 402.180847,664.260742 
z"/>
<path fill="#000000" opacity="1.000000" stroke="none" 
	d="
M240.697906,656.577087 
	C240.816681,653.921448 242.255127,653.440369 244.131653,653.493164 
	C248.454742,653.614868 252.792435,653.540161 257.098206,653.877136 
	C263.231689,654.357239 266.758606,657.426270 268.121460,663.000000 
	C269.581085,668.969421 268.177307,672.360718 262.707550,676.117432 
	C262.034210,676.579956 261.394897,677.092041 260.613251,677.675659 
	C262.119354,682.888367 267.077759,686.132446 268.477020,691.500183 
	C265.285736,692.903198 263.221619,691.648438 261.610138,689.612183 
	C259.548981,687.007690 257.423096,684.374573 255.881241,681.459656 
	C254.071243,678.037598 251.254074,677.823608 248.251831,678.483093 
	C245.220901,679.148804 246.466919,681.967529 246.232162,683.933838 
	C246.036026,685.576843 246.172470,687.257751 246.127457,688.921021 
	C246.066742,691.164734 244.937103,692.330078 242.651199,692.110657 
	C240.357864,691.890564 240.344864,690.263550 240.370056,688.456482 
	C240.516098,677.975952 240.587891,667.494385 240.697906,656.577087 
M257.985626,659.250000 
	C255.198105,658.956055 252.415009,658.603394 249.621155,658.393921 
	C248.292252,658.294373 247.048279,658.488281 246.363052,660.025879 
	C243.014481,667.539551 246.909607,673.393799 254.914062,672.798584 
	C255.243561,672.774048 255.581299,672.794678 255.902206,672.729919 
	C258.858887,672.132874 262.057068,671.547791 262.706573,668.003967 
	C263.361847,664.428650 262.951111,660.970154 257.985626,659.250000 
z"/>
<path fill="#000000" opacity="1.000000" stroke="none" 
	d="
M267.871918,642.055847 
	C263.434082,639.805481 261.469971,635.778931 259.438354,632.040588 
	C257.534210,628.536743 254.883102,627.833374 251.550766,628.619324 
	C248.257446,629.396057 249.544785,632.336426 249.281113,634.465454 
	C249.118439,635.778809 249.237625,637.127319 249.234848,638.460083 
	C249.230743,640.433533 248.980270,642.257080 246.371826,642.171448 
	C243.738174,642.085083 243.717300,640.114014 243.716888,638.235718 
	C243.714722,628.073608 243.787201,617.911133 243.720032,607.749512 
	C243.699799,604.689636 245.105759,603.595459 247.990295,603.696472 
	C251.818146,603.830505 255.660706,603.672913 259.479156,603.918091 
	C266.100769,604.343201 269.825928,607.137024 271.087769,612.297241 
	C272.756165,619.120361 271.292786,622.725403 265.274231,626.680664 
	C264.741455,627.030762 264.274933,627.481689 263.743134,627.913879 
	C265.510101,632.979370 269.679779,636.435181 271.766876,640.938660 
	C270.871399,642.896423 269.481598,642.340149 267.871918,642.055847 
M262.355530,622.119690 
	C265.047852,621.041565 265.965607,618.989746 265.921997,616.180725 
	C265.835266,610.601501 263.637238,609.255127 255.311813,609.025818 
	C251.016312,608.907593 248.961853,609.869934 249.120148,614.789001 
	C249.406616,623.691345 249.123047,623.708130 258.161499,622.945557 
	C259.318237,622.847961 260.464142,622.622620 262.355530,622.119690 
z"/>
<path fill="#000000" opacity="1.000000" stroke="none" 
	d="
M302.349304,611.265381 
	C295.382904,617.991089 295.003174,627.876770 301.190979,633.609558 
	C307.215363,639.190979 316.753937,638.135071 322.907501,631.202881 
	C323.128113,630.954346 323.311981,630.673035 323.533386,630.425232 
	C324.765778,629.045715 326.275787,627.188171 328.084534,628.476440 
	C330.304871,630.057739 328.500183,632.129639 327.523071,633.732422 
	C323.605835,640.158264 313.951935,643.815674 305.976929,642.024780 
	C297.372559,640.092529 290.923462,632.095215 290.827728,623.238770 
	C290.735077,614.671082 296.831238,606.182251 304.723297,603.889465 
	C313.613678,601.306580 323.384796,605.001038 327.688477,612.618469 
	C328.414917,613.904358 329.132965,615.252869 328.692657,617.124695 
	C325.844971,618.194946 324.256683,616.339478 322.559631,614.473694 
	C316.180725,607.460632 310.953979,606.591187 302.349304,611.265381 
z"/>
<path fill="#000000" opacity="1.000000" stroke="none" 
	d="
M306.928772,686.788513 
	C308.070496,686.783630 308.743286,686.718872 309.400848,686.791931 
	C311.541473,687.029602 314.825562,685.911255 314.813019,689.394653 
	C314.802521,692.317627 311.740631,691.890686 309.693115,691.966736 
	C304.704407,692.152161 299.706482,692.081970 294.716644,692.247192 
	C291.674774,692.347900 289.970123,691.314331 290.028656,688.007690 
	C290.211182,677.694885 290.399902,667.381042 290.418274,657.067322 
	C290.423492,654.124084 291.936310,653.225220 294.412689,653.231018 
	C300.062256,653.244202 305.712158,653.319275 311.360626,653.434937 
	C312.809875,653.464661 314.047150,654.088318 314.008331,655.780884 
	C313.972382,657.349182 312.961121,658.205688 311.418396,658.233459 
	C307.591461,658.302490 303.763092,658.288269 299.935608,658.332336 
	C297.699280,658.358093 294.923065,658.441711 295.692627,661.567993 
	C296.423981,664.539001 293.719696,669.722961 300.035156,669.821167 
	C303.196655,669.870361 306.361450,669.791504 309.520142,669.902649 
	C311.282135,669.964600 312.994446,670.526062 312.804230,672.750305 
	C312.639313,674.679016 310.974152,674.918396 309.432892,674.952087 
	C306.271698,675.021240 303.108093,675.054260 299.946503,675.015991 
	C295.492523,674.962158 296.034332,678.143616 296.065643,680.952515 
	C296.096466,683.721130 295.450317,686.989502 299.961884,686.852478 
	C302.124176,686.786743 304.289124,686.809204 306.928772,686.788513 
z"/>
<path fill="#000000" opacity="1.000000" stroke="none" 
	d="
M634.319519,684.391968 
	C628.682739,682.465149 623.195007,683.591492 617.772339,683.389404 
	C615.978943,683.322632 615.487610,685.010193 614.913574,686.419556 
	C614.230774,688.095886 613.820374,689.940796 612.339294,691.183533 
	C611.245972,692.100830 609.961609,692.578369 608.669617,691.812744 
	C607.165466,690.921448 607.659912,689.532288 608.194702,688.283875 
	C612.769592,677.604065 617.295227,666.902161 621.986816,656.273621 
	C623.537598,652.760193 626.851807,652.202698 628.295044,655.398804 
	C633.585999,667.116089 638.392700,679.052063 643.350647,690.831848 
	C640.029480,692.967041 638.242920,692.036011 636.961365,689.600220 
	C636.114014,687.989746 635.383423,686.317871 634.319519,684.391968 
M624.296753,663.583313 
	C622.444397,668.265747 620.592102,672.948242 618.567688,678.065857 
	C623.320007,678.065857 627.240967,678.065857 632.089844,678.065857 
	C629.983276,672.679321 628.112000,667.780884 626.125183,662.929749 
	C625.807129,662.153015 625.045715,662.425232 624.296753,663.583313 
z"/>
<path fill="#000000" opacity="1.000000" stroke="none" 
	d="
M538.443054,658.286865 
	C534.082092,658.382751 530.085083,658.518799 526.107483,658.300598 
	C520.939392,658.017151 521.335571,661.401001 521.197449,664.879639 
	C521.055359,668.455750 522.196167,670.157654 525.995422,669.908752 
	C529.139709,669.702759 532.311035,669.841797 535.467896,669.924011 
	C537.139221,669.967529 539.080200,670.060791 539.024902,672.394165 
	C538.978943,674.335510 537.237976,674.647583 535.741882,674.739136 
	C532.591736,674.932129 529.413208,675.216370 526.279358,674.994995 
	C521.177185,674.634644 521.389038,677.765259 521.256714,681.372192 
	C521.107666,685.431396 522.414246,687.206055 526.624329,686.870972 
	C529.929199,686.607971 533.270264,686.776245 536.595032,686.798096 
	C538.125671,686.808105 539.777039,686.911316 539.983948,688.898376 
	C540.219604,691.162720 538.425720,691.794128 536.764893,691.855774 
	C530.954712,692.071533 525.136902,692.111145 519.321533,692.143860 
	C516.821533,692.157898 515.800049,690.644348 515.794983,688.286743 
	C515.772827,677.979553 515.761658,667.672302 515.718018,657.365234 
	C515.709106,655.265747 516.298218,653.775696 518.723328,653.697449 
	C524.535217,653.510071 530.350281,653.086365 536.156372,653.189758 
	C539.222473,653.244324 541.663208,654.522278 538.443054,658.286865 
z"/>
<path fill="#000000" opacity="1.000000" stroke="none" 
	d="
M160.325897,637.412109 
	C164.575775,627.419800 168.632919,617.756653 172.738052,608.113831 
	C173.549438,606.207886 173.824219,603.647644 176.715576,603.669861 
	C179.168808,603.688782 180.032333,605.725952 180.802017,607.536926 
	C185.222061,617.936890 189.564774,628.369690 193.912888,638.800110 
	C194.297180,639.721985 194.548553,640.706482 193.705948,641.869080 
	C190.769180,643.073181 189.059784,641.359680 188.302399,638.753906 
	C186.977432,634.195312 183.996124,632.837097 179.607452,633.360962 
	C177.965454,633.556946 176.253723,633.599182 174.621979,633.369324 
	C169.858475,632.698364 166.578705,633.986206 165.361649,639.142700 
	C164.807968,641.488586 162.871506,642.968384 160.412308,641.976257 
	C158.044342,641.020874 159.675140,639.213562 160.325897,637.412109 
M172.329071,622.697815 
	C172.006897,624.431458 170.420624,625.812683 170.900208,628.054199 
	C174.876343,629.011230 178.860458,628.749268 183.577652,628.127014 
	C181.419403,622.530457 179.418121,617.341003 176.993378,611.053406 
	C175.163025,615.579651 173.869156,618.779236 172.329071,622.697815 
z"/>
<path fill="#000000" opacity="1.000000" stroke="none" 
	d="
M358.528564,656.804810 
	C354.594727,659.428528 350.520386,658.075989 346.639771,658.160339 
	C343.081207,658.237854 341.247650,659.110535 341.846313,663.009521 
	C342.044281,664.298950 341.903076,665.680176 341.695343,666.984070 
	C341.222076,669.954590 342.706696,670.868835 345.363129,670.840698 
	C348.189667,670.810852 351.018677,670.835510 353.843781,670.926025 
	C355.495087,670.978943 357.521088,670.932129 357.405273,673.331848 
	C357.304169,675.425964 355.471130,675.888611 353.758026,675.974365 
	C351.103058,676.107239 348.434845,676.157593 345.779510,676.054993 
	C342.791321,675.939697 341.567627,677.056152 341.852448,680.185425 
	C342.106873,682.981201 341.819000,685.825073 341.794067,688.648010 
	C341.777893,690.480835 341.367004,692.001709 339.146790,692.112427 
	C337.068665,692.216064 335.986328,691.054749 335.985321,689.110107 
	C335.979675,678.301453 336.042297,667.492737 336.104218,656.684204 
	C336.117218,654.416016 337.487976,653.349182 339.596375,653.319153 
	C345.070343,653.241150 350.547638,653.180603 356.019592,653.298279 
	C357.769196,653.335938 359.362305,654.077637 358.528564,656.804810 
z"/>
<path fill="#000000" opacity="1.000000" stroke="none" 
	d="
M555.013733,632.932251 
	C555.006042,626.109558 554.791016,619.768555 555.070984,613.449524 
	C555.219788,610.091675 554.134460,608.867065 550.873901,609.123291 
	C549.057190,609.265991 547.205383,609.172668 545.385864,609.006226 
	C543.724243,608.854248 542.571899,607.936218 542.537720,606.122253 
	C542.498962,604.063049 543.935974,603.695740 545.568604,603.696167 
	C553.899658,603.698364 562.230896,603.699646 570.561707,603.750122 
	C572.049438,603.759094 573.806824,603.778015 573.958069,605.820984 
	C574.107483,607.839111 572.800171,608.798645 570.898865,609.031128 
	C567.848633,609.404175 563.847900,607.651001 561.976562,610.479797 
	C560.100342,613.315918 561.370361,617.301147 561.298096,620.778381 
	C561.180237,626.441528 561.242065,632.108521 561.228760,637.773865 
	C561.223389,640.055542 561.135803,642.297363 557.950623,642.195129 
	C555.072327,642.102722 555.052429,639.982239 555.015747,637.921875 
	C554.989075,636.422729 555.011658,634.922791 555.013733,632.932251 
z"/>
<path fill="#000000" opacity="1.000000" stroke="none" 
	d="
M670.532776,659.863525 
	C667.845520,657.432434 664.917542,658.787781 662.184143,658.527466 
	C660.205444,658.339050 658.314758,657.798706 658.269714,655.546936 
	C658.227478,653.438477 660.271545,653.727661 661.677795,653.564575 
	C670.155945,652.580872 678.621399,654.038940 687.100708,653.751953 
	C688.566101,653.702393 689.713623,654.496704 689.739685,656.140686 
	C689.764832,657.734497 688.697754,658.504944 687.259766,658.789246 
	C686.613159,658.917114 685.938171,658.916748 685.274841,658.943298 
	C677.144287,659.268860 677.139954,659.267334 677.094360,667.266785 
	C677.056396,673.927979 677.064941,680.589661 676.978394,687.250183 
	C676.950256,689.414001 676.999878,691.989258 673.899414,691.971741 
	C670.767151,691.954102 670.947510,689.362061 670.922913,687.206848 
	C670.820374,678.219543 670.768311,669.231750 670.532776,659.863525 
z"/>
<path fill="#000000" opacity="1.000000" stroke="none" 
	d="
M741.222839,611.111328 
	C741.222656,620.218323 741.236145,628.839478 741.215210,637.460571 
	C741.210022,639.586426 741.597229,642.090881 738.328308,642.163025 
	C735.124756,642.233765 735.139465,639.779907 735.165649,637.623657 
	C735.284180,627.846802 735.479004,618.070740 735.685852,608.295288 
	C735.726807,606.358765 735.385986,603.954407 738.359924,603.920593 
	C741.198059,603.888306 741.276001,606.043335 741.240295,608.138733 
	C741.226196,608.967529 741.228760,609.796631 741.222839,611.111328 
z"/>
<path fill="#000000" opacity="1.000000" stroke="none" 
	d="
M429.713043,658.719604 
	C429.904938,656.384766 428.473480,653.488586 432.202179,653.601196 
	C435.292358,653.694458 435.212830,656.100830 435.212646,658.339111 
	C435.211853,667.996948 435.249939,677.654907 435.212219,687.312561 
	C435.204010,689.408508 435.611603,692.046875 432.347961,692.096497 
	C428.839294,692.149963 429.088684,689.420776 429.129089,687.093811 
	C429.290802,677.775574 429.515167,668.458557 429.713043,658.719604 
z"/>
<path fill="#000000" opacity="1.000000" stroke="none" 
	d="
M599.284119,632.943115 
	C599.273926,634.598022 599.365295,635.773132 599.237366,636.923828 
	C599.004578,639.018005 600.245056,642.097473 596.481873,642.166626 
	C592.753845,642.235168 593.577087,639.270264 593.575989,637.082214 
	C593.571716,628.268433 593.475342,619.448181 593.806824,610.645203 
	C593.892700,608.364014 591.418884,604.062744 596.147156,604.019409 
	C600.873108,603.976135 599.123108,608.382751 599.203918,611.001648 
	C599.424377,618.145935 599.284180,625.301270 599.284119,632.943115 
z"/>
<path fill="#000000" opacity="1.000000" stroke="none" 
	d="
M715.291504,687.728149 
	C715.315247,690.390625 714.938232,692.287598 712.095459,692.115295 
	C709.455872,691.955261 709.566467,690.055359 709.583923,688.137512 
	C709.674683,678.163025 709.710022,668.188110 709.798828,658.213623 
	C709.816101,656.278625 709.365234,653.853882 712.355286,653.739563 
	C715.708313,653.611267 715.275024,656.214539 715.280151,658.334656 
	C715.303528,667.977234 715.293030,677.619873 715.291504,687.728149 
z"/>
<path fill="#000000" opacity="1.000000" stroke="none" 
	d="
M213.726730,613.178101 
	C213.702255,610.707520 213.741821,608.705994 213.635239,606.712341 
	C213.537140,604.877197 214.190887,603.821594 216.131027,603.824646 
	C217.891830,603.827454 219.010406,604.665039 219.134583,606.458374 
	C219.260880,608.282532 219.252884,610.117798 219.257065,611.948303 
	C219.276093,620.275208 219.337967,628.602844 219.245789,636.928589 
	C219.222565,639.024475 220.242889,642.204651 216.469360,642.098572 
	C213.281403,642.009033 213.822830,639.175659 213.799500,637.131836 
	C213.710144,629.305481 213.741028,621.477783 213.726730,613.178101 
z"/>
<path fill="#000000" opacity="1.000000" stroke="none" 
	d="
M517.558472,637.262207 
	C517.608215,627.349915 517.619019,617.871582 517.710449,608.393921 
	C517.728577,606.508545 517.201050,603.975403 520.226074,603.899719 
	C523.458740,603.818787 523.209167,606.391418 523.219299,608.543518 
	C523.265381,618.354187 523.276672,628.165039 523.291443,637.975830 
	C523.294495,640.004456 523.461060,642.181824 520.479553,642.232788 
	C517.097168,642.290466 517.499573,639.872009 517.558472,637.262207 
z"/>
</svg>